<?xml version="1.0" encoding="UTF-8"?>
<svg width="80px" height="80px" viewBox="0 0 80 80" version="1.1" xmlns="http://www.w3.org/2000/svg" xmlns:xlink="http://www.w3.org/1999/xlink">
    <title>icon_guihua</title>
    <defs>
        <linearGradient x1="50%" y1="0%" x2="50%" y2="100%" id="linearGradient-1">
            <stop stop-color="#FFE28E" stop-opacity="0.751857517" offset="0%"></stop>
            <stop stop-color="#FFF2CC" stop-opacity="0.375437063" offset="100%"></stop>
        </linearGradient>
        <linearGradient x1="50%" y1="0%" x2="50%" y2="100%" id="linearGradient-2">
            <stop stop-color="#2456F3" stop-opacity="0.751857517" offset="0%"></stop>
            <stop stop-color="#2456F3" offset="100%"></stop>
        </linearGradient>
        <linearGradient x1="55.0304367%" y1="96.7294053%" x2="55.0304367%" y2="3.03312578%" id="linearGradient-3">
            <stop stop-color="#FF6D3B" offset="0%"></stop>
            <stop stop-color="#FF6D3B" stop-opacity="0.657807037" offset="100%"></stop>
        </linearGradient>
    </defs>
    <g id="icon_guihua" stroke="none" stroke-width="1" fill="none" fill-rule="evenodd">
        <rect id="矩形" fill-opacity="0.5" fill="#FFFFFF" x="21.82294" y="59.5001004" width="36.17706" height="4.49989956"></rect>
        <circle id="椭圆形" fill-opacity="0.48" fill="url(#linearGradient-1)" cx="40" cy="40" r="40"></circle>
        <polygon id="矩形" fill="url(#linearGradient-2)" transform="translate(35.577142, 26.577142) rotate(45.000000) translate(-35.577142, -26.577142) " points="28.849526 8.55809034 42.3825741 8.52474092 42.3047588 40.1018531 35.5271183 44.6295439 28.7717107 40.1352025"></polygon>
        <rect id="矩形" fill="#0B1E32" x="22" y="44" width="36" height="3"></rect>
        <rect id="矩形" fill="#0B1E32" x="27" y="56" width="20" height="3"></rect>
        <rect id="矩形" fill="url(#linearGradient-3)" x="52" y="54" width="26" height="26"></rect>
        <rect id="矩形" fill="#0B1E32" x="0" y="77" width="80" height="3"></rect>
        <rect id="矩形" fill="#0B1E32" x="0" y="68" width="40" height="3"></rect>
        <rect id="矩形" fill="#0B1E32" x="8" y="17" width="3" height="62"></rect>
        <rect id="矩形" fill="#222222" x="10" y="17" width="18" height="3"></rect>
        <rect id="矩形备份-15" fill="#222222" x="57" y="17" width="14" height="3"></rect>
        <rect id="矩形" fill="#0B1E32" x="69" y="17" width="3" height="62"></rect>
    </g>
</svg>