<?xml version="1.0" encoding="UTF-8"?>
<svg width="80px" height="80px" viewBox="0 0 80 80" version="1.1" xmlns="http://www.w3.org/2000/svg" xmlns:xlink="http://www.w3.org/1999/xlink">
    <title>icon_gongzuoshi</title>
    <defs>
        <linearGradient x1="50%" y1="0%" x2="50%" y2="100%" id="linearGradient-1">
            <stop stop-color="#FFE28E" stop-opacity="0.751857517" offset="0%"></stop>
            <stop stop-color="#FFF2CC" stop-opacity="0.375437063" offset="100%"></stop>
        </linearGradient>
        <linearGradient x1="55.0304367%" y1="96.7294053%" x2="55.0304367%" y2="3.03312578%" id="linearGradient-2">
            <stop stop-color="#FF6D3B" offset="0%"></stop>
            <stop stop-color="#FF6D3B" stop-opacity="0.657807037" offset="100%"></stop>
        </linearGradient>
        <linearGradient x1="50%" y1="0%" x2="50%" y2="100%" id="linearGradient-3">
            <stop stop-color="#2456F3" stop-opacity="0.751857517" offset="0%"></stop>
            <stop stop-color="#2456F3" offset="100%"></stop>
        </linearGradient>
    </defs>
    <g id="icon_gongzuoshi" stroke="none" stroke-width="1" fill="none" fill-rule="evenodd">
        <circle id="椭圆形" fill-opacity="0.48" fill="url(#linearGradient-1)" cx="40" cy="40" r="40"></circle>
        <circle id="椭圆形" fill="url(#linearGradient-2)" cx="19" cy="64" r="14"></circle>
        <path d="M56.6417334,62.5200621 L56.5686535,62.5739732 C56.5370911,62.5971781 56.5054783,62.6203184 56.4738152,62.6433939 C56.2853457,62.7807493 56.094942,62.9159152 55.9027965,63.0487404 C55.8366922,63.0944363 55.7704292,63.1398231 55.703962,63.1849315 C55.6504669,63.2212356 55.5970455,63.2572216 55.5434938,63.2930279 C55.465673,63.3450638 55.3870356,63.3970742 55.3081217,63.448697 C55.2724121,63.4720568 55.2367316,63.4952817 55.2009949,63.5184274 C55.1164944,63.5731557 55.0318016,63.6273641 54.9467994,63.6811275 C54.905101,63.7075022 54.8630623,63.7339359 54.8209485,63.7602608 C54.7739527,63.7896363 54.7272671,63.8186273 54.6804901,63.8474845 C54.6182768,63.8858672 54.555151,63.9244686 54.491861,63.9628262 C54.3937248,64.0223014 54.2954589,64.0810346 54.1968053,64.1391804 C54.1606136,64.160511 54.1245914,64.1816334 54.0885178,64.2026774 C54.0040297,64.2519656 53.9190373,64.3009511 53.833765,64.3495016 C53.7968294,64.3705319 53.7594781,64.3916852 53.7220735,64.4127549 C53.6543557,64.4508981 53.5870079,64.4884667 53.5194898,64.5257645 C53.4525999,64.5627167 53.3851544,64.5996136 53.3175413,64.6362402 C53.2562789,64.669426 53.1950351,64.7023069 53.1336552,64.7349659 C53.0707817,64.7684209 53.0074242,64.8018214 52.9439237,64.8349855 C52.8896052,64.8633538 52.8353104,64.8914832 52.780912,64.9194397 C52.7272784,64.9470029 52.6736912,64.9743236 52.6200046,65.0014765 L76,65 L76,68 L40,68 L40,68 C24.536027,68 12,55.463973 12,40 C12,24.536027 24.536027,12 40,12 C55.463973,12 68,24.536027 68,40 C68,40.96495 67.9511879,41.9184994 67.8558982,42.8583136 C67.822523,43.1874216 67.7835198,43.5143252 67.738935,43.83945 C67.6684831,44.3531695 67.584145,44.8621981 67.4862785,45.366397 C67.1826122,46.930686 66.7489305,48.4479545 66.196848,49.9070419 C66.0397233,50.3223203 65.8728592,50.7332273 65.6966588,51.1391425 C65.6548699,51.2354147 65.6124383,51.3316689 65.5694823,51.4276371 C65.4726275,51.6440133 65.3732594,51.8586169 65.271275,52.0717295 C65.1798788,52.2627254 65.0861433,52.4529932 64.9903259,52.6420273 C64.9570369,52.7077039 64.9233341,52.7735459 64.8893789,52.8392362 C64.6056402,53.3881357 64.3045624,53.9259749 63.9866382,54.4524985 C63.8644205,54.6549027 63.7398472,54.8554252 63.6128318,55.0542368 C63.4235076,55.3505662 63.2290409,55.6426866 63.0293038,55.9308771 C62.7337498,56.3573047 62.4268829,56.7748369 62.1089437,57.183326 C61.9076548,57.4419364 61.702136,57.6966735 61.4923022,57.947679 C61.4267442,58.0260964 61.3611983,58.1036428 61.2952401,58.1808262 C61.2457719,58.2387156 61.1956907,58.2968396 61.1453754,58.3547549 C61.1108324,58.3945148 61.0763508,58.433981 61.0417605,58.4733493 C60.9748629,58.5494848 60.9078911,58.6248839 60.84052,58.6999171 C60.8029683,58.7417391 60.7653762,58.7833554 60.7276612,58.824858 C60.6920029,58.8640985 60.6559791,58.9035152 60.6198443,58.9428284 C60.455361,59.1217739 60.2888972,59.2982429 60.1201893,59.4725265 C60.0884279,59.5053368 60.0568555,59.5377948 60.0252051,59.5701764 C59.7542751,59.8473697 59.4775077,60.1190817 59.1952173,60.3849954 C59.180869,60.3985108 59.1668893,60.4116521 59.152896,60.4247792 C58.966103,60.6000165 58.776535,60.7730492 58.5846081,60.9434839 C58.4122454,61.0965455 58.2379571,61.2475311 58.0618057,61.3963808 C58.0263442,61.4263476 57.9902955,61.4566559 57.9541694,61.4868748 C57.8877151,61.5424602 57.8214736,61.5973536 57.7549762,61.6519466 C57.7114008,61.6877224 57.6673026,61.7237041 57.6230931,61.7595538 C57.5435251,61.8240739 57.4638941,61.8879303 57.3839083,61.9513588 C57.3533339,61.9756044 57.3225918,61.9998787 57.2917977,62.0240897 C57.2339403,62.069578 57.1760276,62.1147439 57.1179333,62.1596864 C57.0497464,62.2124366 56.9813404,62.2648556 56.9126865,62.316965 C56.902673,62.3245656 56.8923019,62.3324264 56.8819251,62.3402801 L56.6417334,62.5200621 L56.6417334,62.5200621 Z M40,15 C26.1928813,15 15,26.1928813 15,40 C15,53.8071187 26.1928813,65 40,65 C53.8071187,65 65,53.8071187 65,40 C65,26.1928813 53.8071187,15 40,15 Z M41.5,18.1403074 L41.500216,24.0694075 C49.1397326,24.7798114 55.2207487,30.8611289 55.9306852,38.5007811 L63.0556555,38.5 L63.0556555,41.5 L55.9305925,41.500216 C55.2202195,49.1394003 49.1394003,55.2202195 41.500216,55.9305925 L41.5,61.5928824 L38.5,61.5928824 L38.5007811,55.9306852 C30.8611289,55.2207487 24.7798114,49.1397326 24.0694075,41.500216 L17,41.5 L17,38.5 L24.0693148,38.5007811 C24.7792822,30.8607965 30.8607965,24.7792822 38.5007811,24.0693148 L38.5,18.1403074 L41.5,18.1403074 Z M41.5001569,27.0856216 L41.5,29.5928824 L38.5,29.5928824 L38.5008382,27.0855073 C32.5191704,27.7723461 27.7723461,32.5191704 27.0855073,38.5008382 L30.0556555,38.5 L30.0556555,41.5 L27.0856216,41.5001569 C27.7728725,47.4813561 32.5195021,52.227692 38.5008382,52.9144927 L38.5,50.1403074 L41.5,50.1403074 L41.5001569,52.9143784 C47.4810244,52.2271656 52.2271656,47.4810244 52.9143784,41.5001569 L50,41.5 L50,38.5 L52.9144927,38.5008382 C52.227692,32.5195021 47.4813561,27.7728725 41.5001569,27.0856216 Z" id="形状结合" fill="#222222" fill-rule="nonzero"></path>
        <circle id="椭圆形" fill="url(#linearGradient-2)" cx="40" cy="40" r="8"></circle>
        <rect id="矩形" fill="url(#linearGradient-3)" x="70" y="40" width="10" height="40" rx="5"></rect>
        <rect id="矩形" fill="#222222" x="0" y="77" width="80" height="3"></rect>
    </g>
</svg>