<?xml version="1.0" encoding="UTF-8"?>
<svg width="80px" height="80px" viewBox="0 0 80 80" version="1.1" xmlns="http://www.w3.org/2000/svg" xmlns:xlink="http://www.w3.org/1999/xlink">
    <title>icon_zixun</title>
    <defs>
        <linearGradient x1="50%" y1="0%" x2="50%" y2="100%" id="linearGradient-1">
            <stop stop-color="#FFE28E" stop-opacity="0.751857517" offset="0%"></stop>
            <stop stop-color="#FFF2CC" stop-opacity="0.375437063" offset="100%"></stop>
        </linearGradient>
        <linearGradient x1="55.0304367%" y1="96.7294053%" x2="55.0304367%" y2="3.03312578%" id="linearGradient-2">
            <stop stop-color="#FF6D3B" offset="0%"></stop>
            <stop stop-color="#FF6D3B" stop-opacity="0.657807037" offset="100%"></stop>
        </linearGradient>
        <linearGradient x1="50%" y1="0%" x2="50%" y2="100%" id="linearGradient-3">
            <stop stop-color="#2456F3" stop-opacity="0.751857517" offset="0%"></stop>
            <stop stop-color="#2456F3" offset="100%"></stop>
        </linearGradient>
    </defs>
    <g id="icon_zixun" stroke="none" stroke-width="1" fill="none" fill-rule="evenodd">
        <circle id="椭圆形" fill-opacity="0.48" fill="url(#linearGradient-1)" cx="40" cy="40" r="40"></circle>
        <rect id="矩形" fill="url(#linearGradient-2)" x="37" y="40" width="38" height="37"></rect>
        <path d="M74.499,36.501 L63.498,36.5019443 L63.4980614,55.5019443 L48.499,55.501 L41.023797,60.8458798 L33.547,55.501 L18.5306598,55.5019443 L18.496601,20.5019443 L63.4980614,20.5019443 L63.498,33.5019443 L77.5,33.5019443 L77.5,77 L80,77 L80,80 L0,80 L0,77 L74.5,77 L74.499,36.501 Z M60.498,23.501 L21.499,23.501 L21.528,52.501 L34.5113701,52.5019443 L41.023,57.157 L47.5362238,52.5019443 L60.498,52.501 L60.498,23.501 Z M40.9980614,35.0019443 C42.6549157,35.0019443 43.9980614,36.3450901 43.9980614,38.0019443 C43.9980614,39.6587986 42.6549157,41.0019443 40.9980614,41.0019443 C39.3412072,41.0019443 37.9980614,39.6587986 37.9980614,38.0019443 C37.9980614,36.3450901 39.3412072,35.0019443 40.9980614,35.0019443 Z M31.9980614,35.0019443 C33.6549157,35.0019443 34.9980614,36.3450901 34.9980614,38.0019443 C34.9980614,39.6587986 33.6549157,41.0019443 31.9980614,41.0019443 C30.3412072,41.0019443 28.9980614,39.6587986 28.9980614,38.0019443 C28.9980614,36.3450901 30.3412072,35.0019443 31.9980614,35.0019443 Z M49.9980614,35.0019443 C51.6549157,35.0019443 52.9980614,36.3450901 52.9980614,38.0019443 C52.9980614,39.6587986 51.6549157,41.0019443 49.9980614,41.0019443 C48.3412072,41.0019443 46.9980614,39.6587986 46.9980614,38.0019443 C46.9980614,36.3450901 48.3412072,35.0019443 49.9980614,35.0019443 Z" id="形状结合" fill="#222222" fill-rule="nonzero"></path>
        <path d="M26,77 C26,63.745166 15.254834,53 2,53 L2,77 L26,77 Z" id="路径" fill="url(#linearGradient-3)"></path>
    </g>
</svg>