<?xml version="1.0" encoding="UTF-8"?>
<svg width="80px" height="80px" viewBox="0 0 80 80" version="1.1" xmlns="http://www.w3.org/2000/svg" xmlns:xlink="http://www.w3.org/1999/xlink">
    <title>icon_kecheng</title>
    <defs>
        <linearGradient x1="50%" y1="0%" x2="50%" y2="100%" id="linearGradient-1">
            <stop stop-color="#FFE28E" stop-opacity="0.751857517" offset="0%"></stop>
            <stop stop-color="#FFF2CC" stop-opacity="0.375437063" offset="100%"></stop>
        </linearGradient>
        <linearGradient x1="55.0304367%" y1="96.7294053%" x2="55.0304367%" y2="3.03312578%" id="linearGradient-2">
            <stop stop-color="#FF6D3B" offset="0%"></stop>
            <stop stop-color="#FF6D3B" stop-opacity="0.657807037" offset="100%"></stop>
        </linearGradient>
        <linearGradient x1="50%" y1="0%" x2="50%" y2="100%" id="linearGradient-3">
            <stop stop-color="#2456F3" stop-opacity="0.751857517" offset="0%"></stop>
            <stop stop-color="#2456F3" offset="100%"></stop>
        </linearGradient>
    </defs>
    <g id="icon_kecheng" stroke="none" stroke-width="1" fill="none" fill-rule="evenodd">
        <circle id="椭圆形" fill-opacity="0.48" fill="url(#linearGradient-1)" cx="40" cy="40" r="40"></circle>
        <rect id="矩形" fill="#222222" x="0" y="77" width="80" height="3"></rect>
        <rect id="矩形" fill="url(#linearGradient-2)" x="9" y="26" width="18" height="48"></rect>
        <rect id="矩形备份-9" fill="url(#linearGradient-3)" x="47" y="36" width="14" height="25"></rect>
        <path d="M36,20 L36,74 L14,74 L14,20 L36,20 Z M33,23 L17,23 L17,71 L33,71 L33,60 L25,60 L25,57 L33,57 L33,49 L25,49 L25,46 L33,46 L33,38 L25,38 L25,35 L33,35 L33,23 Z" id="形状结合" fill="#222222" fill-rule="nonzero"></path>
        <path d="M54,16.7921957 L65.5,29.2121957 L65.5,74.5 L42.5,74.5 L42.5,29.2121957 L54,16.7921957 Z M62.5,67.9991957 L45.5,67.9991957 L45.5,71.5 L62.5,71.5 L62.5,67.9991957 Z M62.5,32.9991957 L45.5,32.9991957 L45.5,64.9991957 L62.5,64.9991957 L62.5,32.9991957 Z M54,21.208 L45.858,29.9991957 L62.141,29.9991957 L54,21.208 Z" id="形状结合" fill="#222222" fill-rule="nonzero"></path>
    </g>
</svg>