<?xml version="1.0" encoding="UTF-8"?>
<svg width="24px" height="24px" viewBox="0 0 24 24" version="1.1" xmlns="http://www.w3.org/2000/svg" xmlns:xlink="http://www.w3.org/1999/xlink">
    <title>icon_quotes_right</title>
    <g id="icon_quotes_right" stroke="none" stroke-width="1" fill="none" fill-rule="evenodd">
        <path d="M24,22.5 L13.8966304,22.5 L13.8966304,15.1235906 C13.8966304,12.1142926 14.1543045,9.7533762 14.6696637,8.04076776 C15.185021,6.3281593 15.7209493,5.18488344 17.1232046,3.8147963 C18.5254581,2.44471102 19.4983997,2.03357418 21.5566663,1.5 L22.9946096,4.63074063 C21.5566663,5.18696683 20.6806252,5.43504854 19.3294698,6.8540594 C17.9783144,8.27307024 17.8786532,9.64557971 17.8786532,10.8252716 L24,10.8252716 L24,22.5 Z M10.1033714,22.5 L0,22.5 L0,15.1235906 C0,12.1142926 0.257675948,9.7533762 0.773033281,8.04076776 C1.28839245,6.3281593 1.82432077,5.18488344 3.22657426,3.8147963 C4.62882956,2.44471102 5.60176934,2.03357418 7.66003771,1.5 L9.09797923,4.63074063 C7.66003771,5.18696683 6.78399484,5.43504854 5.43283942,6.8540594 C4.08168401,8.27307024 3.98202284,9.64557971 3.98202284,10.8252716 L10.1033714,10.8252716 L10.1033714,22.5 Z" id="形状" fill="#FFFFFF" fill-rule="nonzero" transform="translate(12.000000, 12.000000) scale(-1, -1) translate(-12.000000, -12.000000) "></path>
    </g>
</svg>