<?xml version="1.0" encoding="UTF-8"?>
<svg width="188px" height="60px" viewBox="0 0 188 60" version="1.1" xmlns="http://www.w3.org/2000/svg" xmlns:xlink="http://www.w3.org/1999/xlink">
    <title>logo_简约</title>
    <g id="页面-1" stroke="none" stroke-width="1" fill="none" fill-rule="evenodd">
        <g id="成功案例" transform="translate(-360.000000, 0.000000)">
            <g id="logo_简约" transform="translate(360.000000, 0.000000)">
                <rect id="矩形" fill="#FF1F1F" x="0" y="0" width="188" height="60"></rect>
                <g id="编组" transform="translate(30.000000, 9.000000)">
                    <path d="M41,20.5 C41,31.8217212 31.8219155,41 20.4998748,41 C9.17808453,41 0,31.8217212 0,20.5 C0,9.17827881 9.17808453,0 20.4998748,0 C31.8219155,0 41,9.17827881 41,20.5 Z" id="Stroke-2" stroke="#FEFEFE"></path>
                    <path d="M12.3878108,20.1566938 L30.2453505,2.65821398 L31.1327206,2.79488565 L13.1062176,20.515895 L32.1682776,37.3572994 L31.3349759,37.6636843 L12.3878108,20.9777251 L12.3878108,20.1566938 Z M11.1965572,2.33931341 L11.2075711,38.5275193 L10.4378496,38.5275193 L10.4378496,2.65821398 L11.1965572,2.33931341 Z" id="Fill-4" fill="#FEFEFE"></path>
                    <g transform="translate(24.507058, 10.916262)">
                        <line x1="0.25" y1="0" x2="0.25" y2="18.13553" id="Fill-6" fill="#FEFEFE"></line>
                        <line x1="0.25" y1="0" x2="0.25" y2="18.13553" id="Stroke-8" stroke="#FEFEFE" stroke-width="0.75"></line>
                    </g>
                    <polygon id="Fill-9" fill="#FEFEFE" points="8.76088294 3.51499017 8.76088294 37.5895411 9.53060448 37.9392304 9.51959058 3.1960896"></polygon>
                </g>
                <g id="课达艺术" transform="translate(80.460000, 19.840000)" fill="#FFFFFF" fill-rule="nonzero">
                    <path d="M3.72,5.04 C3.50666667,4.53333333 3.15333333,3.92333333 2.66,3.21 C2.16666667,2.49666667 1.72,1.89333333 1.32,1.4 L2.5,0.58 C2.83333333,0.953333333 3.25666667,1.5 3.77,2.22 C4.28333333,2.94 4.67333333,3.53333333 4.94,4 L3.72,5.04 Z M12.46,11.74 C13.7266667,13.3266667 15.6266667,14.7 18.16,15.86 L17.38,17.18 C15.06,15.86 13.2333333,14.4733333 11.9,13.02 L11.9,18.14 L10.48,18.14 L10.48,13.16 C9.89333333,13.8933333 9.17666667,14.6066667 8.33,15.3 C7.48333333,15.9933333 6.46,16.7333333 5.26,17.52 L4.42,16.22 C5.7,15.5 6.77666667,14.7866667 7.65,14.08 C8.52333333,13.3733333 9.28,12.5933333 9.92,11.74 L5.18,11.74 L5.18,10.48 L10.48,10.48 L10.48,8.7 L6.28,8.7 L6.28,1.14 L16.18,1.14 L16.18,8.7 L11.9,8.7 L11.9,10.48 L17.56,10.48 L17.56,11.74 L12.46,11.74 Z M10.48,4.3 L10.48,2.36 L7.68,2.36 L7.68,4.3 L10.48,4.3 Z M11.9,4.3 L14.76,4.3 L14.76,2.36 L11.9,2.36 L11.9,4.3 Z M7.68,5.5 L7.68,7.48 L10.48,7.48 L10.48,5.5 L7.68,5.5 Z M11.9,5.5 L11.9,7.48 L14.76,7.48 L14.76,5.5 L11.9,5.5 Z M5.6,12.74 L6.24,14.04 C5.88,14.3866667 5.4,14.8333333 4.8,15.38 C4.2,15.9266667 3.8,16.2733333 3.6,16.42 C3.25333333,16.7133333 2.96666667,17 2.74,17.28 L1.84,16.18 C2.21333333,15.86 2.4,15.4666667 2.4,15 L2.4,7.94 L-5.68434189e-14,7.94 L-5.68434189e-14,6.5 L3.76,6.5 L3.76,14.52 L5.6,12.74 Z" id="形状"></path>
                    <path d="M24.88,13.58 C26.12,12.7533333 27.09,11.95 27.79,11.17 C28.49,10.39 29.0066667,9.55333333 29.34,8.66 C29.6733333,7.76666667 29.88,6.71333333 29.96,5.5 L25.4,5.5 L25.4,4.04 L30,4.04 C30.0133333,3.29333333 30.02,1.94666667 30.02,0 L31.64,0.08 L31.62,4.04 L36.88,4.04 L36.88,5.5 L31.56,5.5 C31.52,6.43333333 31.4133333,7.25333333 31.24,7.96 C32.04,8.62666667 33.05,9.58333333 34.27,10.83 C35.49,12.0766667 36.3533333,13.0533333 36.86,13.76 L35.78,14.98 C35.26,14.2333333 34.5,13.32 33.5,12.24 C32.5,11.16 31.5866667,10.2333333 30.76,9.46 C30.3466667,10.4066667 29.7566667,11.29 28.99,12.11 C28.2233333,12.93 27.1866667,13.8066667 25.88,14.74 L24.88,13.58 Z M23.7,5.24 C23.2733333,4.56 22.7833333,3.88333333 22.23,3.21 C21.6766667,2.53666667 21.16,1.96666667 20.68,1.5 L21.78,0.5 C22.22,0.926666667 22.75,1.49 23.37,2.19 C23.99,2.89 24.4733333,3.48666667 24.82,3.98 L23.7,5.24 Z M32.46,16.08 C34.3133333,16.08 36.1066667,16.0266667 37.84,15.92 L37.5,17.44 C35.26,17.5066667 33.58,17.54 32.46,17.54 L31.16,17.52 C29.5333333,17.48 28.3033333,17.41 27.47,17.31 C26.6366667,17.21 25.87,16.9966667 25.17,16.67 C24.47,16.3433333 23.76,15.82 23.04,15.1 C22.4933333,15.7266667 21.7,16.5733333 20.66,17.64 L19.6,16.52 C20.88,15.3333333 21.82,14.3933333 22.42,13.7 L22.42,8.12 L20.26,8.12 L20.26,6.7 L23.86,6.7 L23.86,13.92 C24.4866667,14.52 25.1033333,14.9666667 25.71,15.26 C26.3166667,15.5533333 26.99,15.7533333 27.73,15.86 C28.47,15.9666667 29.4866667,16.0333333 30.78,16.06 C31.1533333,16.0733333 31.7133333,16.08 32.46,16.08 Z" id="形状"></path>
                    <path d="M52.04,0.08 L52.04,2.18 L57.08,2.18 L57.08,3.6 L52.04,3.6 L52.04,5.5 L50.56,5.5 L50.56,3.6 L46.1,3.6 L46.1,5.5 L44.6,5.5 L44.6,3.6 L39.54,3.6 L39.54,2.18 L44.6,2.18 L44.6,0.02 L46.1,0.08 L46.1,2.18 L50.56,2.18 L50.56,0.02 L52.04,0.08 Z M54.78,12.48 L56.32,12.98 C56.2933333,13.7133333 56.2266667,14.38 56.12,14.98 C56.0133333,15.6466667 55.8533333,16.1433333 55.64,16.47 C55.4266667,16.7966667 55.1066667,17.0333333 54.68,17.18 C54.2533333,17.3266667 53.62,17.42 52.78,17.46 C51.22,17.54 49.6666667,17.58 48.12,17.58 C46.5866667,17.58 45.0466667,17.54 43.5,17.46 C42.6066667,17.4066667 41.9666667,17.23 41.58,16.93 C41.1933333,16.63 41,16.1733333 41,15.56 C41,15.04 41.29,14.46 41.87,13.82 C42.45,13.18 43.4733333,12.3833333 44.94,11.43 C46.4066667,10.4766667 48.4533333,9.29333333 51.08,7.88 L41.74,7.88 L41.74,6.46 L53.88,6.46 L53.88,7.88 C50.7733333,9.61333333 48.4133333,10.9833333 46.8,11.99 C45.1866667,12.9966667 44.1133333,13.7366667 43.58,14.21 C43.0466667,14.6833333 42.78,15.06 42.78,15.34 C42.78,15.58 42.8766667,15.7533333 43.07,15.86 C43.2633333,15.9666667 43.5666667,16.0333333 43.98,16.06 C45.5533333,16.1266667 46.9733333,16.16 48.24,16.16 C49.52,16.16 50.9466667,16.1266667 52.52,16.06 C53.0933333,16.02 53.5066667,15.96 53.76,15.88 C54.0133333,15.8 54.2,15.6533333 54.32,15.44 C54.44,15.2266667 54.54,14.8866667 54.62,14.42 C54.6866667,14.0466667 54.74,13.4 54.78,12.48 Z" id="形状"></path>
                    <path d="M68.98,5.6 C69.9,7.42666667 71.0366667,9.07 72.39,10.53 C73.7433333,11.99 75.3866667,13.3733333 77.32,14.68 L76.26,16.1 C74.42,14.78 72.9,13.42 71.7,12.02 C70.5,10.62 69.52,9.17333333 68.76,7.68 L68.76,18.08 L67.2,18.08 L67.2,7.72 C66.4933333,9.14666667 65.5433333,10.5466667 64.35,11.92 C63.1566667,13.2933333 61.6666667,14.6866667 59.88,16.1 L58.72,14.8 C60.4933333,13.5733333 62.0933333,12.1533333 63.52,10.54 C64.9466667,8.92666667 66.06,7.28 66.86,5.6 L60,5.6 L60,4.24 L67.2,4.24 L67.2,0.2 L68.76,0.28 L68.76,4.24 L76.06,4.24 L76.06,5.6 L68.98,5.6 Z M73.26,4.04 C72.1666667,2.73333333 71.2866667,1.78666667 70.62,1.2 L71.52,0.3 C72.64,1.24666667 73.5466667,2.12 74.24,2.92 L73.26,4.04 Z" id="形状"></path>
                </g>
            </g>
        </g>
    </g>
</svg>